<svg xmlns="http://www.w3.org/2000/svg" width="27.285" height="28" viewBox="0 0 27.285 28">
  <g id="Group_3291" data-name="Group 3291" transform="translate(-32.231 -1117.5)">
    <path id="Path_154" data-name="Path 154" d="M89.8,22.1a8.923,8.923,0,0,1,8.109-4.308c5.67.253,7.963,4.454,6.994,5.86s-1.879,1.879-7.919-.506C91.849,21.119,90.175,22.418,89.8,22.1Z" transform="translate(-51.461 1107.229)" fill="#4e6e07"/>
    <path id="Path_155" data-name="Path 155" d="M77.713,14.6a12.252,12.252,0,0,1,2.273-6.537A13.285,13.285,0,0,1,100.453,6.4c4.055,4.142,5.023,9.2,3.2,14.6a13.067,13.067,0,0,1-11.472,9.248,13.323,13.323,0,0,1-14.033-8.265,10.934,10.934,0,0,1-.881-4.751,5.681,5.681,0,0,1,.248-1.042l.214-.015a7.673,7.673,0,0,1,.248.735A15.454,15.454,0,0,0,81.553,24.4c2.58,2.721,5.734,4.269,9.448,3.913a7.711,7.711,0,0,0,6.026-3.986,8.056,8.056,0,0,0-5.038-11.862c-.248-.063-.5-.122-.769-.19,1.4-.6,4.42.385,5.865,1.772,2.974,2.857,3.636,6.279,2.341,10.144,2.375-2.1,4.02-7.131,2.516-11.979A12.334,12.334,0,0,0,89.5,3.7,12.969,12.969,0,0,0,77.713,14.6Z" transform="translate(-45.02 1115.146)"/>
  </g>
</svg>
