<svg xmlns="http://www.w3.org/2000/svg" width="173.174" height="35.622" viewBox="0 0 173.174 35.622">
  <g id="Group_57" data-name="Group 57" transform="translate(-80 -30)">
    <path id="Path_108" data-name="Path 108" d="M89.8,23.272a11.352,11.352,0,0,1,10.316-5.48c7.214.322,10.131,5.666,8.9,7.456s-2.39,2.39-10.075-.644C92.407,22.028,90.277,23.681,89.8,23.272Z" transform="translate(-2.029 21.773)" fill="#97bf3d"/>
    <path id="Path_109" data-name="Path 109" d="M77.838,17.937A15.587,15.587,0,0,1,80.73,9.621,16.9,16.9,0,0,1,106.769,7.5c5.158,5.27,6.39,11.71,4.068,18.577-2.341,6.911-7.437,10.886-14.6,11.765A16.949,16.949,0,0,1,78.39,27.331a13.91,13.91,0,0,1-1.121-6.044,7.228,7.228,0,0,1,.316-1.325l.272-.019a9.757,9.757,0,0,1,.316.935c.811,3.523,2.019,6.861,4.551,9.524,3.282,3.462,7.295,5.431,12.019,4.979a9.81,9.81,0,0,0,7.666-5.072A10.249,10.249,0,0,0,96,15.219c-.316-.08-.632-.155-.978-.241,1.783-.762,5.623.489,7.462,2.254,3.784,3.635,4.626,7.988,2.979,12.9,3.022-2.669,5.115-9.072,3.2-15.239A15.692,15.692,0,0,0,92.83,4.073C87.368,4.327,79.739,8.339,77.838,17.937Z" transform="translate(2.75 27.647)"/>
    <g id="Group_20" data-name="Group 20" transform="translate(125.488 42.269)">
      <path id="Path_110" data-name="Path 110" d="M72.037,75.8l-1.118,6.19A2.838,2.838,0,0,1,68.5,80.511a5.164,5.164,0,0,1-.845-2.823,6.285,6.285,0,0,1,.043-.774l.3-1.562a6.1,6.1,0,0,0,.115-1.032q0-1.548-1.161-1.548a1.951,1.951,0,0,0-1.548.7,3.15,3.15,0,0,0-.731,1.591l-1.261,6.921a2.841,2.841,0,0,1-2.436-1.49,5.073,5.073,0,0,1-.845-2.851,4.209,4.209,0,0,1,.072-.731l1.777-10.131a11.577,11.577,0,0,0,.2-1.619,2.1,2.1,0,0,0-.2-.974c2.708,0,4.069.845,4.069,2.536,0,.244-.014.444-.029.6L65.2,72a5.6,5.6,0,0,1,3.482-1.189c2.336,0,3.511,1.146,3.511,3.425A7.9,7.9,0,0,1,72.037,75.8Z" transform="translate(-60.13 -64.19)"/>
      <path id="Path_111" data-name="Path 111" d="M81.227,73.026,79.98,80.033c-1.591,0-2.192.014-1.82.029a3.927,3.927,0,0,1-1.562-.33,10.021,10.021,0,0,1-3.912.516,4.314,4.314,0,0,1-2.465-.645,2.458,2.458,0,0,1-1.132-2.192,4.67,4.67,0,0,1,.072-.688c.487-2.88,3.2-4.485,8.1-4.772A2.09,2.09,0,0,0,75.8,69.687a7.006,7.006,0,0,0-2.937-.6c-.4,0-.6-.072-.6-.2,0-.186.244-.33.731-.4a22.1,22.1,0,0,1,3.052-.244q5.309,0,5.316,3.711A8.972,8.972,0,0,1,81.227,73.026Zm-4.213,2.106a3.681,3.681,0,0,0-.974-1.419,1.938,1.938,0,0,0-1.275-.544,1.3,1.3,0,0,0-1.175.716,2.677,2.677,0,0,0-.358,1.419,4.039,4.039,0,0,0,1.333,3.181,1.847,1.847,0,0,0,1.275.573,1.3,1.3,0,0,0,1.175-.759,2.818,2.818,0,0,0,.358-1.447A4.459,4.459,0,0,0,77.014,75.132Z" transform="translate(-56.251 -62.437)"/>
      <path id="Path_112" data-name="Path 112" d="M90.131,74.311l-1.046,5.875a2.82,2.82,0,0,1-2.422-1.49,5.234,5.234,0,0,1-.845-2.866,3.574,3.574,0,0,1,.086-.716l.215-1.333a6.121,6.121,0,0,0,.086-.974c0-1.032-.373-1.548-1.132-1.548a2.067,2.067,0,0,0-1.562.731,2.921,2.921,0,0,0-.759,1.562l-1.175,6.634a2.82,2.82,0,0,1-2.422-1.49,5.187,5.187,0,0,1-.845-2.851,4.208,4.208,0,0,1,.072-.731l.731-4.227a11.245,11.245,0,0,0,.186-1.6,1.912,1.912,0,0,0-.2-.931c2.536,0,3.883.745,4.026,2.221a5.819,5.819,0,0,1,3.711-1.261c2.293,0,3.453,1.132,3.453,3.41A8.066,8.066,0,0,1,90.131,74.311Z" transform="translate(-52.26 -62.389)"/>
      <path id="Path_113" data-name="Path 113" d="M99.021,74.311l-1.046,5.875a2.82,2.82,0,0,1-2.422-1.49,5.234,5.234,0,0,1-.845-2.866,3.575,3.575,0,0,1,.086-.716l.215-1.333a6.123,6.123,0,0,0,.086-.974c0-1.032-.373-1.548-1.132-1.548a2.067,2.067,0,0,0-1.562.731,2.921,2.921,0,0,0-.759,1.562l-1.175,6.634a2.82,2.82,0,0,1-2.422-1.49,5.187,5.187,0,0,1-.845-2.851,4.209,4.209,0,0,1,.072-.731L88,70.886a11.956,11.956,0,0,0,.2-1.6,1.911,1.911,0,0,0-.2-.931c2.536,0,3.883.745,4.026,2.221A5.819,5.819,0,0,1,95.74,69.31c2.293,0,3.453,1.132,3.453,3.41A13.749,13.749,0,0,1,99.021,74.311Z" transform="translate(-48.411 -62.389)"/>
      <path id="Path_114" data-name="Path 114" d="M108.207,73.026l-1.247,7.007c-1.591,0-2.192.014-1.82.029a3.927,3.927,0,0,1-1.562-.33,10.021,10.021,0,0,1-3.912.516A4.314,4.314,0,0,1,97.2,79.6a2.458,2.458,0,0,1-1.132-2.192,4.67,4.67,0,0,1,.072-.688c.487-2.88,3.2-4.485,8.1-4.772a2.09,2.09,0,0,0-1.462-2.264,7.006,7.006,0,0,0-2.937-.6c-.4,0-.6-.072-.6-.2,0-.186.244-.33.731-.4a22.1,22.1,0,0,1,3.052-.244q5.309,0,5.316,3.711A6.757,6.757,0,0,1,108.207,73.026Zm-4.2,2.106a3.681,3.681,0,0,0-.974-1.419,1.938,1.938,0,0,0-1.275-.544,1.3,1.3,0,0,0-1.175.716,2.677,2.677,0,0,0-.358,1.419,4.039,4.039,0,0,0,1.333,3.181,1.847,1.847,0,0,0,1.275.573,1.3,1.3,0,0,0,1.175-.759,2.818,2.818,0,0,0,.358-1.447A4.459,4.459,0,0,0,104.008,75.132Z" transform="translate(-44.571 -62.437)"/>
      <path id="Path_115" data-name="Path 115" d="M116.8,64.348c.4.057.6.172.6.358,0,.143-.229.229-.673.244a6.714,6.714,0,0,0-3.539,1.146,4.636,4.636,0,0,0-2.264,2.837l-.215,1.046h3.339c.186,0,.287.072.287.229,0,.215-.143.358-.416.444l-3.5,1.218L108.629,82a2.879,2.879,0,0,1-2.493-1.476,5.259,5.259,0,0,1-.845-2.894,4.183,4.183,0,0,1,.072-.774l1.261-6.849a6.389,6.389,0,0,1,3.009-4.456,9.87,9.87,0,0,1,5.316-1.361A10.5,10.5,0,0,1,116.8,64.348Z" transform="translate(-40.58 -64.19)"/>
      <path id="Path_116" data-name="Path 116" d="M125.132,72.745a6.268,6.268,0,0,1-1.419,3.869,8.957,8.957,0,0,1-3.2,2.637,8.527,8.527,0,0,1-3.84.974,5.821,5.821,0,0,1-2.78-.673,4.266,4.266,0,0,1-2.278-3.8,6.282,6.282,0,0,1,1.447-3.869,9.634,9.634,0,0,1,3.21-2.694,8.47,8.47,0,0,1,3.783-.931,5.835,5.835,0,0,1,2.909.716A4.012,4.012,0,0,1,125.132,72.745Zm-5.717-1.82a2.623,2.623,0,0,0-1.762-.759,2.012,2.012,0,0,0-.874.215c-.86.43-1.29,1.361-1.29,2.78a6.43,6.43,0,0,0,.473,2.407,5.259,5.259,0,0,0,1.376,2.02,2.712,2.712,0,0,0,1.777.759,1.839,1.839,0,0,0,.845-.2c.845-.444,1.275-1.39,1.275-2.823a6.391,6.391,0,0,0-.487-2.407A5.18,5.18,0,0,0,119.415,70.925Z" transform="translate(-37.84 -62.428)"/>
      <path id="Path_117" data-name="Path 117" d="M135.182,72.745a6.268,6.268,0,0,1-1.419,3.869,8.956,8.956,0,0,1-3.2,2.637,8.527,8.527,0,0,1-3.84.974,5.821,5.821,0,0,1-2.78-.673,4.266,4.266,0,0,1-2.278-3.8,6.282,6.282,0,0,1,1.447-3.869,9.634,9.634,0,0,1,3.21-2.694,8.47,8.47,0,0,1,3.783-.931,5.835,5.835,0,0,1,2.909.716A4.037,4.037,0,0,1,135.182,72.745Zm-5.717-1.82a2.623,2.623,0,0,0-1.762-.759,2.012,2.012,0,0,0-.874.215c-.86.43-1.29,1.361-1.29,2.78a6.43,6.43,0,0,0,.473,2.407,5.259,5.259,0,0,0,1.376,2.02,2.712,2.712,0,0,0,1.777.759,1.839,1.839,0,0,0,.845-.2c.845-.444,1.275-1.39,1.275-2.823a6.391,6.391,0,0,0-.487-2.407A5.181,5.181,0,0,0,129.465,70.925Z" transform="translate(-33.489 -62.428)"/>
      <path id="Path_118" data-name="Path 118" d="M146.23,67.342l-1.6,9.128c-.659,3.683-2.952,5.517-6.921,5.517A7.226,7.226,0,0,1,133.52,80.9a4.279,4.279,0,0,1-1.82-3.754,8.279,8.279,0,0,1,.129-1.333,7.052,7.052,0,0,1,2.221-4.141,6.192,6.192,0,0,1,4.313-1.6,4.417,4.417,0,0,1,3.1,1.118l.8-4.413a11.641,11.641,0,0,0,.2-1.533,2.947,2.947,0,0,0-.2-1.046c2.68,0,4.026.86,4.026,2.565A2.42,2.42,0,0,1,146.23,67.342Zm-5.588,7.781c-.33-.8-.487-1.218-.487-1.218s-.287-.258-.874-.759a2.679,2.679,0,0,0-1.762-.759,1.8,1.8,0,0,0-.774.172,2.994,2.994,0,0,0-1.318,2.866,5.4,5.4,0,0,0,1.848,4.27,2.631,2.631,0,0,0,1.762.774,1.751,1.751,0,0,0,.8-.2,2.859,2.859,0,0,0,1.29-2.78A5.974,5.974,0,0,0,140.641,75.123Z" transform="translate(-29.147 -64.19)"/>
      <path id="Path_119" data-name="Path 119" d="M152.494,70.645c-.115.788-.731,1.232-1.82,1.333a3.4,3.4,0,0,1-.616.072,2.227,2.227,0,0,1-1.118-.272.969.969,0,0,1-.33-1.591,2.073,2.073,0,0,0-1.462-.416,1.263,1.263,0,0,0-1.333,1.247c-.1.616.229,1.161.974,1.6.487.258,1.218.645,2.207,1.161a1.994,1.994,0,0,1,1.2,1.719,3.525,3.525,0,0,1-.029.373,5.051,5.051,0,0,1-2.049,3.224,6.085,6.085,0,0,1-3.7,1.118,9.872,9.872,0,0,1-1.376-.115q-1.118-.172-1.118-.516c0-.315.459-.43,1.376-.33a2.524,2.524,0,0,0,1.906-.5,2.087,2.087,0,0,0,.774-1.748c0-.53-.373-.974-1.132-1.333-.473-.229-1.189-.545-2.135-.974a2.109,2.109,0,0,1-1.132-1.848,3.131,3.131,0,0,1,.043-.516c.487-2.737,2.737-4.1,6.763-4.055,2.78.029,4.155.7,4.155,2.006A2.667,2.667,0,0,1,152.494,70.645Z" transform="translate(-24.865 -62.42)"/>
    </g>
  </g>
</svg>
