<svg id="united-kingdom" xmlns="http://www.w3.org/2000/svg" width="21.634" height="14.423" viewBox="0 0 21.634 14.423">
  <rect id="Rectangle_55" data-name="Rectangle 55" width="21.634" height="14.423" transform="translate(0 0)" fill="#f0f0f0"/>
  <path id="Path_130" data-name="Path 130" d="M12.169,85.33h-2.7v5.859H0v2.7H9.465v5.859h2.7V93.893h9.465v-2.7H12.169Z" transform="translate(0 -85.33)" fill="#d80027"/>
  <g id="Group_24" data-name="Group 24" transform="translate(13.168 9.719)">
    <path id="Path_131" data-name="Path 131" d="M393.785,315.358l4.995,2.775v-2.775Z" transform="translate(-390.315 -315.358)" fill="#0052b4"/>
    <path id="Path_132" data-name="Path 132" d="M311.652,315.358l8.465,4.7v-1.33l-6.071-3.373Z" transform="translate(-311.652 -315.358)" fill="#0052b4"/>
    <path id="Path_133" data-name="Path 133" d="M317.862,348.449,311.652,345v3.451Z" transform="translate(-311.652 -343.746)" fill="#0052b4"/>
  </g>
  <path id="Path_134" data-name="Path 134" d="M311.652,315.358l8.465,4.7v-1.33l-6.071-3.373Z" transform="translate(-298.484 -305.639)" fill="#f0f0f0"/>
  <path id="Path_135" data-name="Path 135" d="M311.652,315.358l8.465,4.7v-1.33l-6.071-3.373Z" transform="translate(-298.484 -305.639)" fill="#d80027"/>
  <g id="Group_25" data-name="Group 25" transform="translate(0 9.719)">
    <path id="Path_136" data-name="Path 136" d="M3.817,315.356,0,317.477v-2.121Z" transform="translate(0 -315.356)" fill="#0052b4"/>
    <path id="Path_137" data-name="Path 137" d="M32.879,329.51v4.1H25.491Z" transform="translate(-24.414 -328.912)" fill="#0052b4"/>
  </g>
  <path id="Path_138" data-name="Path 138" d="M6.071,315.358,0,318.731v1.33H0l8.465-4.7Z" transform="translate(0 -305.639)" fill="#d80027"/>
  <g id="Group_26" data-name="Group 26" transform="translate(0 0)">
    <path id="Path_139" data-name="Path 139" d="M4.995,133.733,0,130.958v2.775Z" transform="translate(0 -129.03)" fill="#0052b4"/>
    <path id="Path_140" data-name="Path 140" d="M8.465,90.033,0,85.33v1.33l6.071,3.373Z" transform="translate(0 -85.33)" fill="#0052b4"/>
    <path id="Path_141" data-name="Path 141" d="M53.366,85.33l6.21,3.451V85.33Z" transform="translate(-51.111 -85.33)" fill="#0052b4"/>
  </g>
  <path id="Path_142" data-name="Path 142" d="M8.465,90.033,0,85.33v1.33l6.071,3.373Z" transform="translate(0 -85.33)" fill="#f0f0f0"/>
  <path id="Path_143" data-name="Path 143" d="M8.465,90.033,0,85.33v1.33l6.071,3.373Z" transform="translate(0 -85.33)" fill="#d80027"/>
  <g id="Group_27" data-name="Group 27" transform="translate(13.168 0)">
    <path id="Path_144" data-name="Path 144" d="M421.659,148.567l3.817-2.121v2.121Z" transform="translate(-417.011 -143.864)" fill="#0052b4"/>
    <path id="Path_145" data-name="Path 145" d="M311.652,89.436v-4.1h7.388Z" transform="translate(-311.652 -85.331)" fill="#0052b4"/>
  </g>
  <path id="Path_146" data-name="Path 146" d="M314.046,90.033l6.071-3.373V85.33h0l-8.465,4.7Z" transform="translate(-298.484 -85.33)" fill="#d80027"/>
</svg>
